<?xml version="1.0" encoding="utf-8"?>
<!-- Generator: Adobe Illustrator 24.0.2, SVG Export Plug-In . SVG Version: 6.00 Build 0)  -->
<svg version="1.1" id="Layer_1" xmlns="http://www.w3.org/2000/svg" xmlns:xlink="http://www.w3.org/1999/xlink" x="0px" y="0px"
	 viewBox="0 0 300 300" style="enable-background:new 0 0 300 300;" xml:space="preserve">
<style type="text/css">
	.st0{fill-rule:evenodd;clip-rule:evenodd;}
</style>
<path class="st0" d="M63.9,18.3l2.2,226.2c0,17,8.9,28.1,19.6,32.9l0,0c4.4,2.2,8.9,3,14,3c4.4,0,9.6-0.7,14-3
	c11.1-5.2,19.6-15.9,19.6-32.9l2.2-226.2 M224,263.7l-1.5-127.9h7.4l2.2,0l0-2.2v-25.1l0-2.2l-2.2,0l-8.1,0l-0.4-20.3l4.4,0l0-52.5
	c0-8.9-7-15.9-15.9-15.9h-44.4c-8.9,0-15.9,7-15.9,15.9l0.4,52.9h4.4l-0.4,20.3l-8.1,0l-2.2,0l0,2.2V134l0,2.2l2.2,0h7.4l-1.1,127.5
	 M191.8,33.5h18.5c3.7,0,6.3,2.6,6.3,6.3v37.7l-20,0h-3.7v3.7c0,0.7-0.4,1.8-0.7,3L191.8,33.5z M197,90.4c1.5-1.5,2.6-3.3,3-5.2
	l14,0l0.4,21.1h-51.7l0.4-21.1h14c0.4,1.8,1.5,3.7,3,5.2c2.2,2.2,5.2,3.7,8.9,3.7C191.8,94.1,194.8,92.6,197,90.4z M159.6,39.7
	c0-3.7,2.6-6.3,6.3-6.3h18.5l0,51c-0.7-0.7-1.1-1.8-0.7-3v-3.7H180l-20,0L159.6,39.7z M148.9,131l0-20.7l78.4,0V131H148.9z
	 M160.8,263.4l1.5-127.9h52.5l1.5,127.9 M122.3,18.3h4.4L126,244.5c0,13.3-6.7,22.2-15.5,25.9c-3.7,1.5-7.4,2.2-11.1,2.2
	s-7.4-0.7-11.1-2.2l0,0c-8.5-4.1-15.2-12.2-15.5-25.9L70.6,18.3h3.7"/>
<path class="st0" d="M94.6,130.3h10.3l0,10.3l-10.3,0L94.6,130.3L94.6,130.3z M94.6,229.3h10.3l0,10.3l-10.3,0L94.6,229.3
	L94.6,229.3z M94.6,205c3.7,0,6.7,0,10.3,0c0,3.7,0,6.7,0,10.3c-3.7,0-6.7,0-10.3,0C94.6,211.6,94.6,207.9,94.6,205L94.6,205z
	 M94.6,179.8c3.7,0,6.7,0,10.3,0c0,3.7,0,6.7,0,10.3c-3.7,0-6.7,0-10.3,0C94.6,186.5,94.6,183.5,94.6,179.8L94.6,179.8z M95,155.1
	c3.7,0,6.7,0,10.3,0c0,3.7,0,6.7,0,10.3c-3.7,0-6.7,0-10.3,0C94.6,162.1,94.6,158.4,95,155.1z"/>
</svg>
