<?xml version="1.0" encoding="utf-8"?>
<!-- Generator: Adobe Illustrator 24.0.2, SVG Export Plug-In . SVG Version: 6.00 Build 0)  -->
<svg version="1.1" id="Layer_1" xmlns="http://www.w3.org/2000/svg" xmlns:xlink="http://www.w3.org/1999/xlink" x="0px" y="0px"
	 viewBox="0 0 300 300" style="enable-background:new 0 0 300 300;" xml:space="preserve">
<path d="M211.4,281.2v-31.3c0-2.6-2.1-4.2-4.2-4.2h-11v-17.8h-8.4v2.6c0,2.6-2.1,4.2-4.2,4.2h-74.1c-2.6,0-4.2-2.1-4.2-4.2v-2.6
	h-8.4v17.8h-11c-2.6,0-4.2,2.1-4.2,4.2v31.3 M90.8,274.4v-19.8h14.6v-4.2l0,0v-2.6c0-2.6,2.1-4.2,4.2-4.2h74.1
	c2.6,0,4.2,2.1,4.2,4.2v2.6v4.2h14.6v19.8"/>
<rect x="114.3" y="88.5" width="65.3" height="12"/>
<path d="M188.5,67.1c0,2.6-2.1,4.2-4.2,4.2h-74.7c-2.6,0-4.2-2.1-4.2-4.2v-2.6h-8.4v22.5h8.4v-2.6c0-2.6,2.1-4.2,4.2-4.2h74.1
	c2.6,0,4.2,2.1,4.2,4.2v2.6h8.4V64.5h-8.4v2.6H188.5z"/>
<path d="M188.5,105.2c0,2.6-2.1,4.2-4.2,4.2h-74.7c-2.6,0-4.2-2.1-4.2-4.2v-9.4h-8.4v21.9h99.7V95.3h-8.4L188.5,105.2L188.5,105.2z"
	/>
<rect x="114.3" y="12.8" width="65.3" height="12"/>
<rect x="114.3" y="50.9" width="65.3" height="12"/>
<path d="M188.5,29.5c0,2.6-2.1,4.2-4.2,4.2h-74.7c-2.6,0-4.2-2.1-4.2-4.2v-2.6h-8.4v22.5h8.4v-2.6c0-2.6,2.1-4.2,4.2-4.2h74.1
	c2.6,0,4.2,2.1,4.2,4.2v2.6h8.4V26.9h-8.4v2.6H188.5z"/>
<rect x="114.3" y="138.6" width="65.3" height="12"/>
<path d="M196.8,152.2h-8.4v2.6c0,2.6-2.1,4.2-4.2,4.2h-74.7c-2.6,0-4.2-2.1-4.2-4.2v-2.6h-8.4v22.5h8.4v-2.6c0-2.6,2.1-4.2,4.2-4.2
	h74.1c2.6,0,4.2,2.1,4.2,4.2v2.6h8.4v-22.5H196.8z"/>
<path d="M105.4,133.9c0-2.6,2.1-4.2,4.2-4.2h74.1c2.6,0,4.2,2.1,4.2,4.2v9.4h8.4v-21.9H97.1v22.5h8.4V133.9z"/>
<rect x="114.3" y="213.8" width="65.3" height="12"/>
<rect x="114.3" y="176.2" width="65.3" height="12"/>
<path d="M196.8,212.3v-22.5h-8.4v2.6c0,2.6-2.1,4.2-4.2,4.2h-74.7c-2.6,0-4.2-2.1-4.2-4.2v-2.6h-8.4v22.5h8.4v-2.6
	c0-2.6,2.1-4.2,4.2-4.2h74.1c2.6,0,4.2,2.1,4.2,4.2v2.6C187.9,212.3,196.8,212.3,196.8,212.3z"/>
</svg>
